Patient4_TMGait_0pt8_01_left_23_GRF.mot
version=1
nRows=72
nColumns=19
inDegrees=no
endheader
time	F1x	F1y	F1z	M1x	M1y	M1z	F2x	F2y	F2z	M2x	M2y	M2z	EC1x	EC1y	EC1z	EC2x	EC2y	EC2z
25.07	3.059	-2.8037	4.873	0.98309	-3.9574	-13.0889	-25.4754	714.7744	-47.3928	289.5324	70.8207	808.698	-0.0592	0.0182	-0.0073	-0.0462	0.0165	0.9585
25.0812	1.7776	-0.93171	3.3877	0.2765	-2.8899	-7.6008	-22.8871	724.9002	-48.3324	293.3243	68.5776	817.0742	-0.0592	0.0182	-0.0073	-0.0462	0.0165	0.9585
25.0924	0.74165	0.61249	2.124	-0.29956	-1.9714	-3.0575	-20.2962	735.7133	-49.0266	297.3349	66.3389	825.3876	-0.0592	0.0182	-0.0073	-0.0462	0.0165	0.9585
25.1036	-0.036724	1.7831	1.1455	-0.73016	-1.2563	0.37345	-17.8133	746.5415	-49.5034	301.2889	64.2701	833.0168	-0.0592	0.0182	-0.0073	-0.0462	0.0165	0.9585
25.1149	-0.55904	2.5868	0.47161	-1.0247	-0.75966	2.7104	-15.4494	756.7373	-49.8281	304.9144	62.4494	839.4121	-0.0592	0.0182	-0.0073	-0.0462	0.0165	0.9585
25.1261	-0.9125	3.1013	0.044096	-1.2112	-0.44848	4.1605	-13.1738	765.6697	-50.0742	307.947	60.8903	844.0547	-0.0592	0.0182	-0.0073	-0.0462	0.0165	0.9585
25.1373	-1.1236	3.3661	-0.18068	-1.3052	-0.28958	4.8896	-10.8739	772.7758	-50.2987	310.1516	59.5399	846.4703	-0.0592	0.0182	-0.0073	-0.0462	0.0165	0.9585
25.1485	-1.281	3.4436	-0.27567	-1.3262	-0.24136	5.1228	-8.4506	777.59	-50.5379	311.3395	58.3184	846.2743	-0.0592	0.0182	-0.0073	-0.0462	0.0165	0.9585
25.1597	-1.4032	3.3207	-0.2718	-1.2717	-0.28713	4.9453	-5.7992	779.8149	-50.7952	311.3961	57.1168	843.2329	-0.0592	0.0182	-0.0073	-0.0462	0.0165	0.9585
25.1709	-1.551	2.999	-0.21464	-1.1363	-0.40265	4.4508	-2.8662	779.3927	-51.0629	310.3059	55.8432	837.3714	-0.0592	0.0182	-0.0073	-0.0462	0.0165	0.9585
25.1821	-1.7137	2.3993	-0.11643	-0.8895	-0.57661	3.5686	0.33431	776.483	-51.3026	308.1531	54.4175	828.9259	-0.0592	0.0182	-0.0073	-0.0462	0.0165	0.9585
25.1934	-1.9055	1.4338	0.0033813	-0.49935	-0.78977	2.2415	3.7176	771.4833	-51.4954	305.1198	52.8252	818.384	-0.0592	0.0182	-0.0073	-0.0462	0.0165	0.9585
25.2046	-2.051	0.0040226	0.13596	0.066264	-1.0078	0.348	7.1224	764.9667	-51.6285	301.4641	51.1057	806.4006	-0.0592	0.0182	-0.0073	-0.0462	0.0165	0.9585
25.2158	-2.109	-1.9242	0.26739	0.82041	-1.1902	-2.129	10.3727	757.585	-51.765	297.4706	49.3963	793.6902	-0.0592	0.0182	-0.0073	-0.0462	0.0165	0.9585
25.227	-1.9253	-4.3071	0.36779	1.742	-1.2471	-5.1543	13.2943	749.9617	-52.0018	293.409	47.8769	780.9152	-0.0592	0.0182	-0.0073	-0.0462	0.0165	0.9585
25.2382	-1.3815	-6.9043	0.41182	2.7386	-1.0881	-8.432	15.7878	742.6465	-52.4451	289.5144	46.7166	768.6363	-0.0592	0.0182	-0.0073	-0.0462	0.0165	0.9585
25.2494	-0.24296	-9.2248	0.32747	3.6188	-0.54012	-11.3874	17.8485	736.0738	-53.1779	285.9684	46.0227	757.2782	-0.0592	0.0182	-0.0073	-0.0462	0.0165	0.9585
25.2606	1.69	-10.3971	0.051138	4.0513	0.56451	-12.912	19.6018	730.4403	-54.2277	282.8593	45.7919	746.9933	-0.0592	0.0182	-0.0073	-0.0462	0.0165	0.9585
25.2719	4.6496	-9.1397	-0.52215	3.5414	2.4425	-11.3984	21.2656	725.6676	-55.5915	280.159	45.9439	737.6411	-0.0592	0.0182	-0.0073	-0.0462	0.0165	0.9585
25.2831	8.7386	-3.6748	-1.4851	1.4088	5.2589	-4.5722	23.1227	721.3504	-57.1839	277.7163	46.287	728.7477	-0.0592	0.0182	-0.0073	-0.0462	0.0165	0.9585
25.2943	13.8993	8.1661	-2.9287	-3.1853	9.1015	10.3194	25.4228	716.8519	-58.9005	275.2882	46.6177	719.6512	-0.0592	0.0182	-0.0073	-0.0462	0.0165	0.9585
25.3055	19.6887	28.7657	-4.8881	-11.155	13.8373	36.3309	28.3668	711.3468	-60.5484	272.5654	46.6724	709.5239	-0.0592	0.0182	-0.0073	-0.0462	0.0165	0.9585
25.3167	25.1741	60.2555	-7.2965	-23.312	19.0008	76.165	31.9905	703.8765	-61.8676	269.1915	46.1888	697.4724	-0.0592	0.0182	-0.0073	-0.0462	0.0165	0.9585
25.3279	28.6496	103.7521	-9.9076	-40.0688	23.5977	131.2648	36.2162	693.3687	-62.5103	264.7708	44.8795	682.5349	-0.0592	0.0182	-0.0073	-0.0462	0.0165	0.9585
25.3391	27.695	158.3813	-12.1412	-61.0709	25.9825	200.5587	40.7826	678.6729	-62.0929	258.875	42.4947	663.7372	-0.0592	0.0182	-0.0073	-0.0462	0.0165	0.9585
25.3504	20.5262	221.3525	-13.1925	-85.2087	24.497	280.5918	45.3715	658.5874	-60.3174	251.0562	38.8947	640.0561	-0.0592	0.0182	-0.0073	-0.0462	0.0165	0.9585
25.3616	8.0283	288.7155	-12.1667	-110.8733	18.3182	366.3324	49.5661	632.0806	-56.9938	240.9162	34.0734	610.6523	-0.0592	0.0182	-0.0073	-0.0462	0.0165	0.9585
25.3728	-6.6944	354.7313	-7.9343	-135.7785	7.2265	450.2112	52.9628	598.3342	-52.1615	228.1261	28.2309	574.8589	-0.0592	0.0182	-0.0073	-0.0462	0.0165	0.9585
25.384	-20.9607	413.5199	-0.075244	-157.6966	-8.113	524.3173	55.1967	556.8799	-46.0694	212.4787	21.7363	532.3346	-0.0592	0.0182	-0.0073	-0.0462	0.0165	0.9585
25.3952	-33.0692	463.1155	9.8989	-175.9396	-25.1835	585.7718	55.9705	507.9006	-39.1052	193.9988	15.0516	483.3071	-0.0592	0.0182	-0.0073	-0.0462	0.0165	0.9585
25.4064	-42.3113	504.6694	20.3335	-191.0445	-41.5871	635.9677	55.0308	452.3598	-31.747	173.0075	8.6888	428.718	-0.0592	0.0182	-0.0073	-0.0462	0.0165	0.9585
25.4176	-48.5549	540.3887	29.8275	-203.9599	-55.5427	677.7084	52.2747	391.9546	-24.517	150.1121	3.1456	370.1653	-0.0592	0.0182	-0.0073	-0.0462	0.0165	0.9585
25.4289	-52.1076	572.2804	37.5373	-215.5208	-66.1178	713.6279	47.6974	328.9767	-17.8286	126.1658	-1.2233	309.787	-0.0592	0.0182	-0.0073	-0.0462	0.0165	0.9585
25.4401	-53.3004	601.6085	43.1289	-226.2489	-73.0606	745.3883	41.5324	266.1634	-12.0105	102.2074	-4.2166	250.0753	-0.0592	0.0182	-0.0073	-0.0462	0.0165	0.9585
25.4513	-52.5112	629.0371	46.767	-236.3925	-76.7575	773.9268	34.2664	206.445	-7.2648	79.3644	-5.8374	193.6713	-0.0592	0.0182	-0.0073	-0.0462	0.0165	0.9585
25.4625	-50.1205	654.8601	48.9711	-246.0259	-78.015	799.7724	26.6157	152.533	-3.6802	58.6888	-6.2724	142.9881	-0.0592	0.0182	-0.0073	-0.0462	0.0165	0.9585
25.4737	-46.513	679.0648	50.2292	-255.0973	-77.6218	823.081	19.3558	106.4104	-1.1987	40.961	-5.8599	99.76	-0.0592	0.0182	-0.0073	-0.0462	0.0165	0.9585
25.4849	-42.1085	701.2782	51.0863	-263.4181	-76.4057	843.61	13.0485	69.0411	0.34138	26.5775	-4.9491	64.7938	-0.0592	0.0182	-0.0073	-0.0462	0.0165	0.9585
25.4961	-37.2889	720.8501	51.884	-270.7118	-74.958	860.7258	7.9402	40.5011	1.1468	15.5854	-3.809	38.1076	-0.0592	0.0182	-0.0073	-0.0462	0.0165	0.9585
25.5074	-32.4632	737.1356	52.9127	-276.7165	-73.7686	873.8174	4.047	20.1616	1.4148	7.7521	-2.6219	19.1106	-0.0592	0.0182	-0.0073	-0.0462	0.0165	0.9585
25.5186	-27.8578	749.8093	54.151	-281.3156	-72.9207	882.6062	1.2955	6.9169	1.3072	2.6529	-1.508	6.7866	-0.0592	0.0182	-0.0073	-0.0462	0.0165	0.9585
25.5298	-23.6053	758.9431	55.4476	-284.5523	-72.2906	887.2654	-0.46032	-0.64975	1.0202	-0.25984	-0.59598	-0.19569	-0.0592	0.0182	-0.0073	-0.0462	0.0165	0.9585
25.541	-19.6731	764.7874	56.5929	-286.55	-71.6337	888.1097	-1.433	-4.1038	0.67488	-1.5883	0.080042	-3.3139	-0.0592	0.0182	-0.0073	-0.0462	0.0165	0.9585
25.5522	-16.0385	767.7225	57.414	-287.4736	-70.7424	885.6115	-1.8392	-4.8464	0.35291	-1.8744	0.52268	-3.885	-0.0592	0.0182	-0.0073	-0.0462	0.0165	0.9585
25.5634	-12.6391	768.1791	57.8926	-287.5022	-69.5656	880.2732	-1.882	-4.0323	0.085933	-1.5627	0.77711	-3.0008	-0.0592	0.0182	-0.0073	-0.0462	0.0165	0.9585
25.5746	-9.4336	766.6776	58.112	-286.8326	-68.1696	872.7116	-1.72	-2.4931	-0.10425	-0.97412	0.87941	-1.4485	-0.0592	0.0182	-0.0073	-0.0462	0.0165	0.9585
25.5859	-6.3261	763.7066	58.255	-285.6439	-66.7132	863.4859	-1.4664	-0.78463	-0.23078	-0.32194	0.88586	0.24099	-0.0592	0.0182	-0.0073	-0.0462	0.0165	0.9585
25.5971	-3.2768	759.7261	58.4303	-284.0994	-65.2958	853.1332	-1.1939	0.76848	-0.29512	0.27162	0.82858	1.7582	-0.0592	0.0182	-0.0073	-0.0462	0.0165	0.9585
25.6083	-0.22423	755.1003	58.6681	-282.3306	-63.931	842.067	-0.94147	2.0218	-0.31431	0.75174	0.73776	2.9796	-0.0592	0.0182	-0.0073	-0.0462	0.0165	0.9585
25.6195	2.8179	750.1427	58.9127	-280.4501	-62.56	830.6683	-0.73546	2.9274	-0.30996	1.1021	0.64064	3.8518	-0.0592	0.0182	-0.0073	-0.0462	0.0165	0.9585
25.6307	5.8767	745.1144	59.0311	-278.5546	-61.0306	819.2464	-0.58275	3.522	-0.28723	1.3376	0.54237	4.4097	-0.0592	0.0182	-0.0073	-0.0462	0.0165	0.9585
25.6419	8.929	740.223	58.9249	-276.7132	-59.2437	808.0753	-0.47321	3.8619	-0.27574	1.4815	0.46685	4.71	-0.0592	0.0182	-0.0073	-0.0462	0.0165	0.9585
25.6531	11.9451	735.5477	58.5715	-274.9458	-57.187	797.2779	-0.40822	4.0291	-0.2655	1.5634	0.40577	4.8392	-0.0592	0.0182	-0.0073	-0.0462	0.0165	0.9585
25.6644	14.8787	731.1079	58.02	-273.2449	-54.9376	786.938	-0.37432	4.0902	-0.26634	1.6068	0.36978	4.8657	-0.0592	0.0182	-0.0073	-0.0462	0.0165	0.9585
25.6756	17.6848	726.9143	57.3576	-271.6013	-52.6093	777.0949	-0.37771	4.1075	-0.27267	1.6329	0.36384	4.8706	-0.0592	0.0182	-0.0073	-0.0462	0.0165	0.9585
25.6868	20.3192	723.0535	56.6398	-270.0332	-50.2948	767.8601	-0.4038	4.1229	-0.28313	1.6552	0.39106	4.8992	-0.0592	0.0182	-0.0073	-0.0462	0.0165	0.9585
25.698	22.7751	719.6407	55.9274	-268.5763	-48.073	759.3543	-0.46667	4.1464	-0.30548	1.6754	0.4618	4.9603	-0.0592	0.0182	-0.0073	-0.0462	0.0165	0.9585
25.7092	25.0755	716.8722	55.2579	-267.2973	-45.9831	751.763	-0.54739	4.1489	-0.34153	1.6811	0.56977	4.9864	-0.0592	0.0182	-0.0073	-0.0462	0.0165	0.9585
25.7204	27.281	714.9737	54.7087	-266.2715	-44.0828	745.2943	-0.66498	4.0879	-0.39727	1.6508	0.72001	4.9314	-0.0592	0.0182	-0.0073	-0.0462	0.0165	0.9585
25.7316	29.4406	714.1907	54.3446	-265.58	-42.4223	740.1791	-0.79346	3.8635	-0.46541	1.5475	0.89471	4.673	-0.0592	0.0182	-0.0073	-0.0462	0.0165	0.9585
25.7429	31.5963	714.7527	54.2379	-265.2976	-41.0616	736.636	-0.93615	3.3769	-0.55084	1.3298	1.0956	4.0858	-0.0592	0.0182	-0.0073	-0.0462	0.0165	0.9585
25.7541	33.7585	716.8659	54.4183	-265.4864	-40.0286	734.8657	-1.0541	2.495	-0.64694	0.95016	1.2951	2.9675	-0.0592	0.0182	-0.0073	-0.0462	0.0165	0.9585
25.7653	35.9231	720.5759	54.9141	-266.153	-39.353	734.9093	-1.1248	1.1035	-0.75064	0.36671	1.4702	1.1675	-0.0592	0.0182	-0.0073	-0.0462	0.0165	0.9585
25.7765	38.0644	725.7307	55.7422	-267.232	-39.05	736.6079	-1.0775	-0.89167	-0.84785	-0.45033	1.5721	-1.4474	-0.0592	0.0182	-0.0073	-0.0462	0.0165	0.9585
25.7877	40.2035	731.983	56.9041	-268.5868	-39.1036	739.5853	-0.85624	-3.4681	-0.90361	-1.4864	1.5302	-4.8411	-0.0592	0.0182	-0.0073	-0.0462	0.0165	0.9585
25.7989	42.3406	738.8238	58.3962	-270.0229	-39.4922	743.3138	-0.35054	-6.4308	-0.86993	-2.6553	1.2394	-8.7604	-0.0592	0.0182	-0.0073	-0.0462	0.0165	0.9585
25.8101	44.5309	745.5923	60.1876	-271.296	-40.1548	747.1009	0.52325	-9.2872	-0.67164	-3.7573	0.56926	-12.559	-0.0592	0.0182	-0.0073	-0.0462	0.0165	0.9585
25.8214	46.766	751.5732	62.2362	-272.15	-41.0348	750.2024	1.872	-11.1694	-0.21121	-4.4435	-0.64079	-15.1116	-0.0592	0.0182	-0.0073	-0.0462	0.0165	0.9585
25.8326	49.0734	756.1546	64.4493	-272.3771	-42.028	751.9614	3.7333	-10.7111	0.62645	-4.1703	-2.5461	-14.6371	-0.0592	0.0182	-0.0073	-0.0462	0.0165	0.9585
25.8438	51.4831	758.9941	66.7223	-271.8808	-43.0181	752.0211	6.071	-6.0268	1.9543	-2.1847	-5.2582	-8.6875	-0.0592	0.0182	-0.0073	-0.0462	0.0165	0.9585
25.855	54.1157	760.0126	68.8884	-270.6772	-43.8071	750.259	8.6684	5.3047	3.8456	2.472	-8.7607	5.9046	-0.0592	0.0182	-0.0073	-0.0462	0.0165	0.9585
25.8662	57.1062	759.1777	70.763	-268.8112	-44.179	746.6177	11.0742	26.0034	6.2842	10.8735	-12.8223	32.701	-0.0592	0.0182	-0.0073	-0.0462	0.0165	0.9585
